# xmcd
#
# Track frame offsets:
#	150
#	11064
#	21125
#	34210
#	44045
#	56138
#	69484
#	81087
#	92328
#	103113
#	115920
#	127967
#
# Disc length: 1844 seconds
#
# Revision: 1
# Processed by: cddbd v1.4PL0 Copyright (c) Steve Scherf et al.
# Submitted via: audiograbber 1.80.04
#
DISCID=9d07320c
DTITLE=John Lee Hooker - Travelin'
DYEAR=1960
DGENRE=Blues
TTITLE0=No Shoes
TTITLE1=I Wanna Walk
TTITLE2=Canal Street Blues
TTITLE3=Run On
TTITLE4=I'm a Stranger
TTITLE5=Whiskey and Wimmen
TTITLE6=Solid Sender
TTITLE7=Sunnyland
TTITLE8=Goin' to California
TTITLE9=I Can't Believe
TTITLE10=I'll Know Tonight
TTITLE11=Dusty Road
EXTD=
EXTT0=
EXTT1=
EXTT2=
EXTT3=
EXTT4=
EXTT5=
EXTT6=
EXTT7=
EXTT8=
EXTT9=
EXTT10=
EXTT11=
PLAYORDER=
